<svg xmlns="http://www.w3.org/2000/svg" xmlns:xlink="http://www.w3.org/1999/xlink" width="90" height="90" viewBox="0 0 90 90">
  <defs>
    <clipPath id="clip-path">
      <rect id="矩形_92" data-name="矩形 92" width="55.889" height="49.415" fill="#fff"/>
    </clipPath>
  </defs>
  <g id="接待报备" transform="translate(-44 -656)">
    <rect id="矩形_91" data-name="矩形 91" width="90" height="90" rx="10" transform="translate(44 656)" fill="#ff6565"/>
    <g id="组_271" data-name="组 271" transform="translate(-221 490)">
      <g id="组_235" data-name="组 235" transform="translate(282 186)">
        <g id="组_234" data-name="组 234" transform="translate(0)" clip-path="url(#clip-path)">
          <path id="路径_61" data-name="路径 61" d="M311.5,194.122l4.2-4.216a3.553,3.553,0,0,1,5.04,0L336.7,205.923a3.587,3.587,0,0,1,0,5.058l-6.717,6.742-16.808,16.865a3.554,3.554,0,0,1-5.04,0l-25.216-25.3a3.587,3.587,0,0,1,0-5.058l16.809-16.865a3.554,3.554,0,0,1,5.04,0Zm8.894,24.792-2.52-2.526a1.2,1.2,0,0,1,0-1.684l.842-.842a1.19,1.19,0,0,1,1.684,0l2.52,2.532,2.033-2.039-6.736-6.749-2.52,2.532a3.554,3.554,0,0,1-5.04,0l-5.039-5.058a3.576,3.576,0,0,1,0-5.058l2.52-2.526-5.881-5.9-15.131,15.168,22.69,22.765,1.678-1.684-5.881-5.907a1.2,1.2,0,0,1,0-1.684l.842-.842a1.19,1.19,0,0,1,1.684,0l5.882,5.9,2.526-2.526-4.21-4.216a1.2,1.2,0,0,1,0-1.684l.842-.842a1.189,1.189,0,0,1,1.684,0l4.2,4.216Zm0,0" transform="translate(-281.888 -186.295)" fill="#fff"/>
        </g>
      </g>
    </g>
  </g>
</svg>
