<svg xmlns="http://www.w3.org/2000/svg" width="90" height="90" viewBox="0 0 90 90">
  <g id="预约餐厅" transform="translate(-609 -656)">
    <rect id="矩形_91" data-name="矩形 91" width="90" height="90" rx="10" transform="translate(609 656)" fill="#08d553"/>
    <g id="组_270" data-name="组 270" transform="translate(225 509.72)">
      <path id="路径_63" data-name="路径 63" d="M428.658,164.28a26.662,26.662,0,0,0-11.413,50.756c.3-6.05.641-11.832,1.016-16.159-3.229-.823-5.675-4.735-5.675-9.438,0-5.3,3.108-9.6,6.942-9.6s6.941,4.3,6.941,9.6c0,4.7-2.446,8.614-5.675,9.438.411,4.73.783,11.2,1.1,17.853a26.843,26.843,0,0,0,13.531,0c.313-6.61.682-13.035,1.09-17.756-3.225-.336-5.667-2.084-5.667-6.782,0-4.08.288-9.2,3.366-11.335v9.28a1.089,1.089,0,0,0,1.086,1.086h.226a1.089,1.089,0,0,0,1.086-1.086V179.928a7.752,7.752,0,0,1,1.179-.087,7.443,7.443,0,0,1,1.178.091v10.2a1.089,1.089,0,0,0,1.086,1.086h.226a1.088,1.088,0,0,0,1.086-1.086V180.9c3,2.164,3.366,7.24,3.366,11.294,0,4.7-2.442,6.446-5.667,6.782.373,4.317.713,10.058,1.008,16.063a26.662,26.662,0,0,0-11.413-50.756Zm4.87,45.657a1.127,1.127,0,0,1,.558,2.183,22.024,22.024,0,0,1-10.609.062,1.127,1.127,0,0,1,.532-2.19,19.774,19.774,0,0,0,9.518-.055Zm9.462-2.49a1.127,1.127,0,0,1-1.478-1.7,19.607,19.607,0,1,0-24.945.63,1.127,1.127,0,1,1-1.391,1.773,22.068,22.068,0,0,1-6.1-7.485,21.864,21.864,0,1,1,41.445-9.725,21.861,21.861,0,0,1-7.529,16.508Zm0,0" transform="translate(0 0)" fill="#fff"/>
    </g>
  </g>
</svg>
