<svg xmlns="http://www.w3.org/2000/svg" xmlns:xlink="http://www.w3.org/1999/xlink" width="90" height="90" viewBox="0 0 90 90">
  <defs>
    <clipPath id="clip-path">
      <rect id="矩形_93" data-name="矩形 93" width="44.101" height="44.213" fill="#fff"/>
    </clipPath>
  </defs>
  <g id="预约会议会" transform="translate(-232 -656)">
    <rect id="矩形_91" data-name="矩形 91" width="90" height="90" rx="10" transform="translate(232 656)" fill="#5ca8ff"/>
    <g id="组_239" data-name="组 239" transform="translate(185 809)">
      <g id="组_238" data-name="组 238" transform="translate(70 -130)">
        <g id="组_237" data-name="组 237" transform="translate(0 0)" clip-path="url(#clip-path)">
          <path id="路径_62" data-name="路径 62" d="M71.312-129.157h41.2a1.266,1.266,0,0,1,1.432,1.432v-.028a1.266,1.266,0,0,1-1.432,1.432h-41.2a1.266,1.266,0,0,1-1.432-1.432v.028a1.266,1.266,0,0,1,1.432-1.432Zm0,0" transform="translate(-69.886 129.202)" fill="#fff"/>
          <path id="路径_63" data-name="路径 63" d="M258.358,458.842a1.047,1.047,0,0,1,0-1.675L269.03,446.5a1.184,1.184,0,0,1,1.675,1.675l-10.672,10.672a1.047,1.047,0,0,1-1.675,0Zm0,0" transform="translate(-247.831 -415.09)" fill="#fff"/>
          <path id="路径_64" data-name="路径 64" d="M456.123,446.879a1.047,1.047,0,0,1,1.675,0l10.672,10.672a1.184,1.184,0,0,1-1.675,1.675l-10.672-10.672a1.047,1.047,0,0,1,0-1.675Zm0,0" transform="translate(-434.958 -415.453)" fill="#fff"/>
        </g>
      </g>
      <path id="路径_65" data-name="路径 65" d="M116.474-77.958V-48.27a1.4,1.4,0,0,0,1.4,1.4h36.243a1.4,1.4,0,0,0,1.4-1.4V-77.958ZM134.4-52.208H122.23a1.184,1.184,0,0,1-1.184-.964,1.157,1.157,0,0,1,.283-.938,1.157,1.157,0,0,1,.9-.384H134.4a1.156,1.156,0,0,1,.828.348,1.156,1.156,0,0,1,.329.836,1.184,1.184,0,0,1-1.157,1.184Zm0-6.472H122.23a1.184,1.184,0,0,1-1.184-1.184,1.184,1.184,0,0,1,1.184-1.184H134.4a1.184,1.184,0,0,1,1.184,1.184A1.184,1.184,0,0,1,134.4-58.68Zm18.122-5.067a1.377,1.377,0,0,1-1.377,1.377h-9.639a1.377,1.377,0,0,1-1.377-1.377v-9.584a1.377,1.377,0,0,1,1.377-1.377h9.584a1.4,1.4,0,0,1,1.377,1.377Zm0,0" transform="translate(-43.974 -49.243)" fill="#fff"/>
    </g>
  </g>
</svg>
