<svg xmlns="http://www.w3.org/2000/svg" width="90" height="90" viewBox="0 0 90 90">
  <g id="预约接待" transform="translate(-421 -656)">
    <rect id="矩形_91" data-name="矩形 91" width="90" height="90" rx="10" transform="translate(421 656)" fill="#fcc442"/>
    <path id="路径_61" data-name="路径 61" d="M33.063-60.335H27.18v-2.941A5.883,5.883,0,0,0,21.3-69.16H9.53a5.884,5.884,0,0,0-4.16,1.723,5.885,5.885,0,0,0-1.723,4.16v2.941H-2.237A5.883,5.883,0,0,0-8.12-54.452v23.533a5.883,5.883,0,0,0,5.883,5.883H.7v2.942H6.588v-2.942h17.65v2.942h5.883v-2.942h2.942a5.883,5.883,0,0,0,5.883-5.883V-54.452A5.883,5.883,0,0,0,33.063-60.335ZM24.238-36.8H6.588v-5.883h17.65ZM9.53-63.277H21.3v2.941H9.53Z" transform="translate(450.787 746.827)" fill="#fff"/>
  </g>
</svg>
