<svg xmlns="http://www.w3.org/2000/svg" xmlns:xlink="http://www.w3.org/1999/xlink" width="62" height="62" viewBox="0 0 62 62">
  <defs>
    <clipPath id="clip-path">
      <rect id="矩形_24" data-name="矩形 24" width="52.356" height="59.573" fill="#21cd66"/>
    </clipPath>
  </defs>
  <g id="待办1" transform="translate(-67 244)">
    <g id="组_266" data-name="组 266" transform="translate(1772 -131)">
      <g id="组_153" data-name="组 153" transform="translate(-1700 -112)">
        <g id="组_152" data-name="组 152" transform="translate(0 0)" clip-path="url(#clip-path)">
          <path id="路径_24" data-name="路径 24" d="M-1677.089-65.564a15.787,15.787,0,0,1,6.048-12.415,1.593,1.593,0,0,1-.7.172h-17.05a1.561,1.561,0,0,1-1.547-1.547,1.562,1.562,0,0,1,1.547-1.547h17.016a1.562,1.562,0,0,1,1.547,1.547,1.549,1.549,0,0,1-.425,1.055,14.623,14.623,0,0,1,8.757-2.881c4.077,0,8.365,1.268,11.114,3.87v-31.748a2.445,2.445,0,0,0-2.463-2.463h-44.409a2.446,2.446,0,0,0-2.463,2.463v53.02a2.445,2.445,0,0,0,2.463,2.463h26.158a14.962,14.962,0,0,1-5.59-11.99Zm-11.705-34.424h26.51a1.561,1.561,0,0,1,1.547,1.547,1.561,1.561,0,0,1-1.547,1.547h-26.51a1.561,1.561,0,0,1-1.547-1.547,1.562,1.562,0,0,1,1.547-1.547Zm0,9.56h26.51a1.561,1.561,0,0,1,1.547,1.547,1.561,1.561,0,0,1-1.547,1.547h-26.51a1.562,1.562,0,0,1-1.547-1.547,1.562,1.562,0,0,1,1.547-1.547Zm0,0" transform="translate(1700.11 111.56)" fill="#21cd66"/>
        </g>
      </g>
      <path id="路径_25" data-name="路径 25" d="M-1389.685,281.105l-.425.319a.949.949,0,0,0,.425-.319Zm9.428-.7a13.469,13.469,0,0,0-13.465,13.464,13.469,13.469,0,0,0,13.465,13.464,13.469,13.469,0,0,0,13.464-13.464,13.468,13.468,0,0,0-13.464-13.464Zm7.117,12.083-1.52.75a3.247,3.247,0,0,0-1.175,1.109l-3.273,5.769a.571.571,0,0,1-.152.2.6.6,0,0,1-.856-.066l-2.45-2.463-5.172,3.36,3.5-5.033-2.131-2.144a.62.62,0,0,1-.166-.226.585.585,0,0,1,.319-.757l5.962-3.087a2.593,2.593,0,0,0,1.049-1.182l.644-1.726a.5.5,0,0,1,.193-.3.5.5,0,0,1,.7.1l4.7,4.721a.612.612,0,0,1,.173.239.586.586,0,0,1-.339.737Zm0,0" transform="translate(-280.86 -359.837)" fill="#21cd66"/>
    </g>
    <rect id="矩形_95" data-name="矩形 95" width="62" height="62" transform="translate(67 -244)" fill="#fff" opacity="0"/>
  </g>
</svg>
