<svg xmlns="http://www.w3.org/2000/svg" xmlns:xlink="http://www.w3.org/1999/xlink" width="90" height="90" viewBox="0 0 90 90">
  <defs>
    <linearGradient id="linear-gradient" x1="0.633" y1="-0.406" x2="0.65" y2="0.667" gradientUnits="objectBoundingBox">
      <stop offset="0" stop-color="#f8e28d"/>
      <stop offset="1" stop-color="#fc6e00"/>
    </linearGradient>
    <clipPath id="clip-path">
      <rect id="矩形_24" data-name="矩形 24" width="41.107" height="46.773" fill="#fff"/>
    </clipPath>
  </defs>
  <g id="待办" transform="translate(-77 -571)">
    <rect id="矩形_32" data-name="矩形 32" width="90" height="90" rx="20" transform="translate(77 571)" fill="url(#linear-gradient)"/>
    <g id="组_160" data-name="组 160" transform="translate(1801.297 704.2)">
      <g id="组_153" data-name="组 153" transform="translate(-1700 -112)">
        <g id="组_152" data-name="组 152" transform="translate(0 0)" clip-path="url(#clip-path)">
          <path id="路径_24" data-name="路径 24" d="M-1682.037-75.438a12.394,12.394,0,0,1,4.748-9.748,1.25,1.25,0,0,1-.552.135h-13.386a1.226,1.226,0,0,1-1.214-1.214,1.226,1.226,0,0,1,1.214-1.215h13.36a1.226,1.226,0,0,1,1.215,1.215,1.216,1.216,0,0,1-.334.829,11.481,11.481,0,0,1,6.875-2.262,12.942,12.942,0,0,1,8.726,3.039v-24.927a1.92,1.92,0,0,0-1.934-1.934h-34.868a1.92,1.92,0,0,0-1.934,1.934v41.628a1.92,1.92,0,0,0,1.934,1.934h20.538a11.747,11.747,0,0,1-4.389-9.414Zm-9.19-27.028h20.814a1.226,1.226,0,0,1,1.214,1.215,1.226,1.226,0,0,1-1.214,1.214h-20.814a1.226,1.226,0,0,1-1.214-1.214,1.226,1.226,0,0,1,1.214-1.215Zm0,7.506h20.814a1.226,1.226,0,0,1,1.214,1.215,1.226,1.226,0,0,1-1.214,1.215h-20.814a1.226,1.226,0,0,1-1.214-1.215,1.226,1.226,0,0,1,1.214-1.215Zm0,0" transform="translate(1700.112 111.551)" fill="#fff"/>
        </g>
      </g>
      <path id="路径_25" data-name="路径 25" d="M-1390.553,280.954l-.333.25a.746.746,0,0,0,.333-.25Zm7.4-.552a10.575,10.575,0,0,0-10.572,10.571,10.575,10.575,0,0,0,10.572,10.571,10.575,10.575,0,0,0,10.571-10.571,10.575,10.575,0,0,0-10.571-10.571Zm5.588,9.487-1.194.589a2.55,2.55,0,0,0-.922.871l-2.57,4.53a.451.451,0,0,1-.12.156.474.474,0,0,1-.673-.052l-1.923-1.934-4.061,2.638,2.747-3.951-1.673-1.684a.486.486,0,0,1-.13-.177.459.459,0,0,1,.25-.594l4.681-2.424a2.035,2.035,0,0,0,.824-.928l.505-1.355a.4.4,0,0,1,.151-.235.391.391,0,0,1,.547.078l3.69,3.706a.481.481,0,0,1,.136.188.461.461,0,0,1-.266.579Zm0,0" transform="translate(-286.321 -366.834)" fill="#fff"/>
    </g>
  </g>
</svg>
