<svg xmlns="http://www.w3.org/2000/svg" xmlns:xlink="http://www.w3.org/1999/xlink" width="90" height="90" viewBox="0 0 90 90">
  <defs>
    <linearGradient id="linear-gradient" x1="0.872" y1="-0.128" x2="0.852" y2="1" gradientUnits="objectBoundingBox">
      <stop offset="0" stop-color="#8deaf5"/>
      <stop offset="1" stop-color="#00a2f6"/>
    </linearGradient>
  </defs>
  <g id="组_233" data-name="组 233" transform="translate(-77 -783)">
    <rect id="矩形_26" data-name="矩形 26" width="90" height="90" rx="20" transform="translate(77 783)" fill="url(#linear-gradient)"/>
    <g id="组_165" data-name="组 165" transform="translate(0 1)">
      <g id="组_159" data-name="组 159" transform="translate(743.119 867.566)" opacity="0.3">
        <path id="路径_30" data-name="路径 30" d="M-645.162-37.38l-1.852,7.183h13.77l-1.35,5.236h-17.525l7.631-29.591h17.525l-1.345,5.215h-13.77l-1.739,6.743h11.96L-633.2-37.38Z" transform="translate(0 -0.011)" fill="#fff"/>
        <path id="路径_31" data-name="路径 31" d="M-543.958-44.285q0-.5-.015-1.148a5.492,5.492,0,0,0-.415-1.723,3.579,3.579,0,0,0-1.369-1.734,3.53,3.53,0,0,0-2.327-.553,6.435,6.435,0,0,0-3.962,1.838,15.136,15.136,0,0,0-2.8,3.634,19.918,19.918,0,0,0-1.767,4.48,15.323,15.323,0,0,0-.613,4.292,6.279,6.279,0,0,0,1,3.624,3.826,3.826,0,0,0,2.84,1.556,4.569,4.569,0,0,0,2.905-.532,7.848,7.848,0,0,0,2.375-2.1,10.523,10.523,0,0,0,1.467-2.4l.772-1.838h4.11q-.651,1.713-1.242,3.081a23.9,23.9,0,0,1-1.843,3.31,14.5,14.5,0,0,1-2.7,3.185A11.056,11.056,0,0,1-550.68-25.4a10.032,10.032,0,0,1-3.985.606,7.913,7.913,0,0,1-3.08-.6,5.655,5.655,0,0,1-2.181-1.838,7.962,7.962,0,0,1-1.352-3.237,15.094,15.094,0,0,1-.2-4.261,27.468,27.468,0,0,1,.88-4.835,29.079,29.079,0,0,1,2.463-6.255,21.336,21.336,0,0,1,3.44-4.783,14.5,14.5,0,0,1,3.808-2.9,10.1,10.1,0,0,1,4.079-1.055,7.243,7.243,0,0,1,3.407.627,5.41,5.41,0,0,1,2.278,2.036,8.938,8.938,0,0,1,1.182,2.976,9.239,9.239,0,0,1,.206,2.819l-.168,1.8Z" transform="translate(-69.147 0)" fill="#fff"/>
        <path id="路径_32" data-name="路径 32" d="M-477.765-36.454l-2.96,11.479h-3.843l7.626-29.577h10.313a12.222,12.222,0,0,1,2.1.2,3.8,3.8,0,0,1,2.015,1.047,4.314,4.314,0,0,1,1.037,2.828,14.625,14.625,0,0,1-.439,4.493,20.479,20.479,0,0,1-1.522,4.378,10.762,10.762,0,0,1-2.418,3.394,6.825,6.825,0,0,1-2.42,1.414,10.888,10.888,0,0,1-3.019.345Zm1.329-5.153h6.885a2.651,2.651,0,0,0,1.628-.473,4.464,4.464,0,0,0,1.2-1.607,10.462,10.462,0,0,0,.794-2.016,5.648,5.648,0,0,0,.154-2.153,1.931,1.931,0,0,0-.56-1.281,1.589,1.589,0,0,0-.92-.346h-7.152Z" transform="translate(-128.001 -0.011)" fill="#fff"/>
      </g>
      <g id="组_163" data-name="组 163" transform="translate(743.119 865.566)">
        <path id="路径_30-2" data-name="路径 30" d="M-645.162-37.38l-1.852,7.183h13.77l-1.35,5.236h-17.525l7.631-29.591h17.525l-1.345,5.215h-13.77l-1.739,6.743h11.96L-633.2-37.38Z" transform="translate(0 -0.011)" fill="#fff"/>
        <path id="路径_31-2" data-name="路径 31" d="M-543.958-44.285q0-.5-.015-1.148a5.492,5.492,0,0,0-.415-1.723,3.579,3.579,0,0,0-1.369-1.734,3.53,3.53,0,0,0-2.327-.553,6.435,6.435,0,0,0-3.962,1.838,15.136,15.136,0,0,0-2.8,3.634,19.918,19.918,0,0,0-1.767,4.48,15.323,15.323,0,0,0-.613,4.292,6.279,6.279,0,0,0,1,3.624,3.826,3.826,0,0,0,2.84,1.556,4.569,4.569,0,0,0,2.905-.532,7.848,7.848,0,0,0,2.375-2.1,10.523,10.523,0,0,0,1.467-2.4l.772-1.838h4.11q-.651,1.713-1.242,3.081a23.9,23.9,0,0,1-1.843,3.31,14.5,14.5,0,0,1-2.7,3.185A11.056,11.056,0,0,1-550.68-25.4a10.032,10.032,0,0,1-3.985.606,7.913,7.913,0,0,1-3.08-.6,5.655,5.655,0,0,1-2.181-1.838,7.962,7.962,0,0,1-1.352-3.237,15.094,15.094,0,0,1-.2-4.261,27.468,27.468,0,0,1,.88-4.835,29.079,29.079,0,0,1,2.463-6.255,21.336,21.336,0,0,1,3.44-4.783,14.5,14.5,0,0,1,3.808-2.9,10.1,10.1,0,0,1,4.079-1.055,7.243,7.243,0,0,1,3.407.627,5.41,5.41,0,0,1,2.278,2.036,8.938,8.938,0,0,1,1.182,2.976,9.239,9.239,0,0,1,.206,2.819l-.168,1.8Z" transform="translate(-69.147 0)" fill="#fff"/>
        <path id="路径_32-2" data-name="路径 32" d="M-477.765-36.454l-2.96,11.479h-3.843l7.626-29.577h10.313a12.222,12.222,0,0,1,2.1.2,3.8,3.8,0,0,1,2.015,1.047,4.314,4.314,0,0,1,1.037,2.828,14.625,14.625,0,0,1-.439,4.493,20.479,20.479,0,0,1-1.522,4.378,10.762,10.762,0,0,1-2.418,3.394,6.825,6.825,0,0,1-2.42,1.414,10.888,10.888,0,0,1-3.019.345Zm1.329-5.153h6.885a2.651,2.651,0,0,0,1.628-.473,4.464,4.464,0,0,0,1.2-1.607,10.462,10.462,0,0,0,.794-2.016,5.648,5.648,0,0,0,.154-2.153,1.931,1.931,0,0,0-.56-1.281,1.589,1.589,0,0,0-.92-.346h-7.152Z" transform="translate(-128.001 -0.011)" fill="#fff"/>
      </g>
    </g>
  </g>
</svg>
