<svg xmlns="http://www.w3.org/2000/svg" width="70" height="70" viewBox="0 0 70 70">
  <g id="文件" transform="translate(-33 -1332)">
    <rect id="矩形_94" data-name="矩形 94" width="70" height="70" rx="10" transform="translate(33 1332)" fill="#3396fb"/>
    <g id="组_259" data-name="组 259" transform="translate(-74.491 1394.97)">
      <path id="路径_59" data-name="路径 59" d="M153.7-47.72h-21.87A5.849,5.849,0,0,0,126-41.888v27.7a5.849,5.849,0,0,0,5.832,5.832h16.111a6.032,6.032,0,0,0,4.155-1.677l5.759-5.759a5.779,5.779,0,0,0,1.677-4.155V-41.888A5.849,5.849,0,0,0,153.7-47.72ZM128.916-14.186v-27.7a2.924,2.924,0,0,1,2.916-2.916H153.7a2.925,2.925,0,0,1,2.916,2.916v21.141h-4.374a5.849,5.849,0,0,0-5.832,5.832v3.645h-14.58a2.924,2.924,0,0,1-2.916-2.916Zm21.068,2.041a4.019,4.019,0,0,1-.656.51v-3.281a2.924,2.924,0,0,1,2.916-2.916h3.426Zm0,0" transform="translate(0)" fill="#fff"/>
      <path id="路径_60" data-name="路径 60" d="M281.06,121.594h13.122a1.458,1.458,0,0,0,0-2.916H281.06a1.458,1.458,0,0,0,0,2.916Zm5.832,11.664H281.06a1.458,1.458,0,0,0,0,2.916h5.832a1.458,1.458,0,0,0,0-2.916Zm-5.832-4.374h13.122a1.458,1.458,0,0,0,0-2.916H281.06a1.458,1.458,0,0,0,0,2.916Zm0,0" transform="translate(-144.854 -156.921)" fill="#fff"/>
    </g>
  </g>
</svg>
