<svg xmlns="http://www.w3.org/2000/svg" xmlns:xlink="http://www.w3.org/1999/xlink" width="62" height="62" viewBox="0 0 62 62">
  <defs>
    <clipPath id="clip-path">
      <rect id="矩形_25" data-name="矩形 25" width="52.307" height="59.517" fill="#778bfb"/>
    </clipPath>
  </defs>
  <g id="已办1" transform="translate(-202 234)">
    <g id="组_265" data-name="组 265" transform="translate(1255 -121)">
      <g id="组_156" data-name="组 156" transform="translate(-1048 -112)">
        <g id="组_155" data-name="组 155" transform="translate(0 0)" clip-path="url(#clip-path)">
          <path id="路径_26" data-name="路径 26" d="M-1025.11-65.607a15.771,15.771,0,0,1,6.042-12.4,1.592,1.592,0,0,1-.7.172H-1036.8a1.56,1.56,0,0,1-1.545-1.545,1.56,1.56,0,0,1,1.545-1.546h17a1.56,1.56,0,0,1,1.545,1.546,1.548,1.548,0,0,1-.424,1.054,14.609,14.609,0,0,1,8.749-2.879c4.073,0,8.357,1.267,11.1,3.867v-31.718a2.443,2.443,0,0,0-2.461-2.461h-44.367a2.443,2.443,0,0,0-2.461,2.461v52.97a2.443,2.443,0,0,0,2.461,2.461h26.134a14.948,14.948,0,0,1-5.585-11.979ZM-1036.8-100h26.485a1.56,1.56,0,0,1,1.545,1.546,1.56,1.56,0,0,1-1.545,1.545H-1036.8a1.56,1.56,0,0,1-1.545-1.545A1.56,1.56,0,0,1-1036.8-100Zm0,9.551h26.485a1.56,1.56,0,0,1,1.545,1.546,1.56,1.56,0,0,1-1.545,1.545H-1036.8a1.56,1.56,0,0,1-1.545-1.545,1.56,1.56,0,0,1,1.545-1.546Zm0,0" transform="translate(1048.11 111.56)" fill="#778bfb"/>
        </g>
      </g>
      <path id="路径_27" data-name="路径 27" d="M-728.27,280.4a13.456,13.456,0,0,0-13.452,13.451A13.456,13.456,0,0,0-728.27,307.3a13.456,13.456,0,0,0,13.451-13.451A13.456,13.456,0,0,0-728.27,280.4Zm7.38,12.31-7.98,6.384a2.09,2.09,0,0,1-1.309.459,2.092,2.092,0,0,1-1.482-.614l-3.83-3.83a2.1,2.1,0,0,1,0-2.964,2.1,2.1,0,0,1,2.964,0l2.5,2.5,6.515-5.212a2.1,2.1,0,0,1,2.946.327A2.1,2.1,0,0,1-720.89,292.712Z" transform="translate(-280.884 -359.867)" fill="#778bfb"/>
    </g>
    <rect id="矩形_96" data-name="矩形 96" width="62" height="62" transform="translate(202 -234)" fill="#fff" opacity="0"/>
  </g>
</svg>
