<svg xmlns="http://www.w3.org/2000/svg" xmlns:xlink="http://www.w3.org/1999/xlink" width="90" height="90" viewBox="0 0 90 90">
  <defs>
    <linearGradient id="linear-gradient" x1="0.267" y1="-0.322" x2="0.267" y2="1.078" gradientUnits="objectBoundingBox">
      <stop offset="0" stop-color="#5ef29a"/>
      <stop offset="1" stop-color="#00b94b"/>
    </linearGradient>
    <clipPath id="clip-path">
      <rect id="矩形_25" data-name="矩形 25" width="41.693" height="47.44" fill="#fff"/>
    </clipPath>
  </defs>
  <g id="已办" transform="translate(-330 -571)">
    <rect id="矩形_29" data-name="矩形 29" width="90" height="90" rx="20" transform="translate(330 571)" fill="url(#linear-gradient)"/>
    <g id="组_167" data-name="组 167" transform="translate(-2.594 3)">
      <g id="组_157" data-name="组 157" transform="translate(1404.594 704.2)" opacity="0.3">
        <g id="组_156" data-name="组 156" transform="translate(-1048 -112)">
          <g id="组_155" data-name="组 155" transform="translate(0 0)" clip-path="url(#clip-path)">
            <path id="路径_26" data-name="路径 26" d="M-1029.78-74.924a12.571,12.571,0,0,1,4.816-9.887,1.27,1.27,0,0,1-.56.137H-1039.1a1.243,1.243,0,0,1-1.232-1.232,1.243,1.243,0,0,1,1.232-1.232h13.55a1.244,1.244,0,0,1,1.232,1.232,1.234,1.234,0,0,1-.338.84,11.645,11.645,0,0,1,6.973-2.294,13.126,13.126,0,0,1,8.85,3.082v-25.282a1.947,1.947,0,0,0-1.961-1.961h-35.364a1.947,1.947,0,0,0-1.962,1.961v42.222a1.947,1.947,0,0,0,1.962,1.961h20.83a11.915,11.915,0,0,1-4.452-9.548Zm-9.321-27.413h21.111a1.243,1.243,0,0,1,1.232,1.232,1.243,1.243,0,0,1-1.232,1.232H-1039.1a1.243,1.243,0,0,1-1.232-1.232,1.243,1.243,0,0,1,1.232-1.232Zm0,7.613h21.111a1.243,1.243,0,0,1,1.232,1.232,1.243,1.243,0,0,1-1.232,1.232H-1039.1a1.243,1.243,0,0,1-1.232-1.232,1.243,1.243,0,0,1,1.232-1.232Zm0,0" transform="translate(1048.112 111.552)" fill="#fff"/>
          </g>
        </g>
        <path id="路径_27" data-name="路径 27" d="M-731,280.4a10.726,10.726,0,0,0-10.722,10.722A10.726,10.726,0,0,0-731,301.846a10.725,10.725,0,0,0,10.722-10.722A10.725,10.725,0,0,0-731,280.4Zm5.882,9.812-6.361,5.089a1.666,1.666,0,0,1-1.043.366,1.667,1.667,0,0,1-1.182-.489l-3.053-3.053a1.67,1.67,0,0,1,0-2.362,1.67,1.67,0,0,1,2.362,0l2,2,5.193-4.155a1.67,1.67,0,0,1,2.348.261A1.67,1.67,0,0,1-725.117,290.214Z" transform="translate(-286.037 -366.469)" fill="#fff"/>
      </g>
      <g id="组_161" data-name="组 161" transform="translate(1404.594 702.2)">
        <g id="组_156-2" data-name="组 156" transform="translate(-1048 -112)">
          <g id="组_155-2" data-name="组 155" transform="translate(0 0)" clip-path="url(#clip-path)">
            <path id="路径_26-2" data-name="路径 26" d="M-1029.78-74.924a12.571,12.571,0,0,1,4.816-9.887,1.27,1.27,0,0,1-.56.137H-1039.1a1.243,1.243,0,0,1-1.232-1.232,1.243,1.243,0,0,1,1.232-1.232h13.55a1.244,1.244,0,0,1,1.232,1.232,1.234,1.234,0,0,1-.338.84,11.645,11.645,0,0,1,6.973-2.294,13.126,13.126,0,0,1,8.85,3.082v-25.282a1.947,1.947,0,0,0-1.961-1.961h-35.364a1.947,1.947,0,0,0-1.962,1.961v42.222a1.947,1.947,0,0,0,1.962,1.961h20.83a11.915,11.915,0,0,1-4.452-9.548Zm-9.321-27.413h21.111a1.243,1.243,0,0,1,1.232,1.232,1.243,1.243,0,0,1-1.232,1.232H-1039.1a1.243,1.243,0,0,1-1.232-1.232,1.243,1.243,0,0,1,1.232-1.232Zm0,7.613h21.111a1.243,1.243,0,0,1,1.232,1.232,1.243,1.243,0,0,1-1.232,1.232H-1039.1a1.243,1.243,0,0,1-1.232-1.232,1.243,1.243,0,0,1,1.232-1.232Zm0,0" transform="translate(1048.112 111.552)" fill="#fff"/>
          </g>
        </g>
        <path id="路径_27-2" data-name="路径 27" d="M-731,280.4a10.726,10.726,0,0,0-10.722,10.722A10.726,10.726,0,0,0-731,301.846a10.725,10.725,0,0,0,10.722-10.722A10.725,10.725,0,0,0-731,280.4Zm5.882,9.812-6.361,5.089a1.666,1.666,0,0,1-1.043.366,1.667,1.667,0,0,1-1.182-.489l-3.053-3.053a1.67,1.67,0,0,1,0-2.362,1.67,1.67,0,0,1,2.362,0l2,2,5.193-4.155a1.67,1.67,0,0,1,2.348.261A1.67,1.67,0,0,1-725.117,290.214Z" transform="translate(-286.037 -366.469)" fill="#fff"/>
      </g>
    </g>
  </g>
</svg>
