<svg xmlns="http://www.w3.org/2000/svg" width="62" height="62" viewBox="0 0 62 62">
  <g id="抄送我的" transform="translate(602 -859)">
    <rect id="矩形_90" data-name="矩形 90" width="62" height="62" transform="translate(-602 859)" fill="#fff" opacity="0"/>
    <g id="组_240" data-name="组 240" transform="translate(-735.88 910.36)">
      <path id="路径_52" data-name="路径 52" d="M171.619-18.609c.7-.407,1.261-1.573.081-2.129-.4-.183-.813-.352-1.227-.515a14.349,14.349,0,0,0,4.806-10.717A14.4,14.4,0,0,0,160.889-46.36,14.4,14.4,0,0,0,146.5-31.969,14.35,14.35,0,0,0,151.3-21.253,26.229,26.229,0,0,0,134.9-.28a2.956,2.956,0,0,0-.02.346,3.279,3.279,0,0,0,3.281,3.281h27.29a16.344,16.344,0,0,1-1.973-7.8,16.4,16.4,0,0,1,8.141-14.16ZM173.5-5.032l4.65,2.21,5.9-5.9Zm7.978,7.978,3.389-10.2L179.265-1.65Zm0,0" fill="#fc6767"/>
      <path id="路径_53" data-name="路径 53" d="M520.5,289.4a13.455,13.455,0,1,0,13.455,13.455A13.471,13.471,0,0,0,520.5,289.4Zm7.714,7.626-5.192,15.624a.8.8,0,0,1-.712.549h-.054a.8.8,0,0,1-.725-.454l-3.247-6.711-6.609-3.152a.789.789,0,0,1-.413-.461.808.808,0,0,1,.495-1.03L527.179,296a.9.9,0,0,1,.264-.047.81.81,0,0,1,.569.23.853.853,0,0,1,.2.841Zm0,0" transform="translate(-340.627 -307.313)" fill="#fc6767"/>
    </g>
  </g>
</svg>
