<svg xmlns="http://www.w3.org/2000/svg" width="62" height="62.839" viewBox="0 0 62 62.839">
  <g id="我审批的" transform="translate(1062 -875)">
    <rect id="矩形_88" data-name="矩形 88" width="62" height="62" transform="translate(-1062 875)" fill="#fff" opacity="0"/>
    <g id="组_238" data-name="组 238" transform="translate(-1254 917)">
      <path id="路径_49" data-name="路径 49" d="M208.668,13.416H252.25a4.779,4.779,0,0,0,4.783-4.764V.818a4.778,4.778,0,0,0-4.783-4.763H240.195l-1.509-8.368a15.438,15.438,0,0,0,7.609-13.268A15.487,15.487,0,0,0,230.775-41a15.487,15.487,0,0,0-15.52,15.42,15.444,15.444,0,0,0,7.58,13.251l-1.512,8.385H208.668A4.778,4.778,0,0,0,203.887.818V8.652A4.778,4.778,0,0,0,208.668,13.416Z" transform="translate(-7.126 0)" fill="#ffb300"/>
      <path id="路径_50" data-name="路径 50" d="M248.013,545H198.654a2.654,2.654,0,1,0,0,5.307h49.359a2.654,2.654,0,1,0,0-5.307Z" transform="translate(0 -529.469)" fill="#ffb300"/>
    </g>
  </g>
</svg>
