<svg xmlns="http://www.w3.org/2000/svg" width="62" height="62" viewBox="0 0 62 62">
  <g id="我发起的" transform="translate(842 -859)">
    <rect id="矩形_89" data-name="矩形 89" width="62" height="62" transform="translate(-842 859)" fill="#fff" opacity="0"/>
    <g id="组_239" data-name="组 239" transform="translate(-968 971)">
      <path id="路径_51" data-name="路径 51" d="M172.689-78.358a7.162,7.162,0,0,0-5.549-1.5,26.742,26.742,0,0,0-3.749,1.2h-.75v13.047a3.286,3.286,0,0,0-.75.45V-78.808a1.322,1.322,0,0,0-1.2-1.35h-.15v-1.349h.9s2.25-.75,4.649-1.35a8.107,8.107,0,0,1,5.249.75l3-6.9v-18c0-2.7-.45-3-3.149-3H134.3c-2.549,0-3.3.75-3.3,3.449v47.538c0,2.7.3,3,3,3h22.494V-81.507a1.612,1.612,0,0,1,1.5-1.5,1.417,1.417,0,0,1,1.5,1.5v27.293a1.322,1.322,0,0,0,1.2,1.35,1.225,1.225,0,0,0,1.2-1.35v-6l1.5-3.449c1.35-.9,4.2-2.7,7.648-1.2,1.8,1.05,3.6,1.2,6.3,1.2a22.831,22.831,0,0,0,4.649-.45V-78.958a13.767,13.767,0,0,1-9.3.6ZM147.946-72.21a1.363,1.363,0,0,1-.45,1.05c-.3.3-1.2.15-1.5.15h-6c-.3,0-1.05.15-1.35-.15a1.362,1.362,0,0,1-.45-1.05v-1.95a1.361,1.361,0,0,1,.45-1.05,2.227,2.227,0,0,1,1.35-.3h6c.3,0,1.349,0,1.5.3a1.362,1.362,0,0,1,.45,1.05Zm0-12.3a1.362,1.362,0,0,1-.45,1.05,1.361,1.361,0,0,1-1.05.45H139.7a1.619,1.619,0,0,1-1.05-.45,2.165,2.165,0,0,1-.3-1.05v-1.95a1.361,1.361,0,0,1,.45-1.05c.3-.3.9,0,1.35,0h6c.3,0,1.35-.3,1.5,0a1.361,1.361,0,0,1,.45,1.05v1.95Zm7.048-12a1.613,1.613,0,0,1-1.5,1.5H140a1.613,1.613,0,0,1-1.5-1.5V-98a1.613,1.613,0,0,1,1.5-1.5h13.5a1.613,1.613,0,0,1,1.5,1.5Zm0,0" transform="translate(0 0)" fill="#3698fa"/>
    </g>
  </g>
</svg>
