<svg xmlns="http://www.w3.org/2000/svg" width="28" height="28" viewBox="0 0 28 28">
  <g id="多选" transform="translate(-1867 -1392)">
    <g id="组_1021" data-name="组 1021" transform="translate(1867 1392)">
      <rect id="矩形_53" data-name="矩形 53" width="28" height="28" rx="2" fill="#3396fb"/>
    </g>
    <g id="组_289" data-name="组 289" transform="translate(1874 1401)">
      <path id="路径_29" data-name="路径 29" d="M-375.647-17.317a.7.7,0,0,0-.684-.722.674.674,0,0,0-.578.339l-8.1,8.558-4.27-4.51a.659.659,0,0,0-.967,0,.752.752,0,0,0,0,1.022h0L-385.01-7.1l9.176-9.693-.013-.014a.741.741,0,0,0,.2-.511" transform="translate(390.447 18.039)" fill="#fff" stroke="#fff" stroke-width="0.5"/>
    </g>
  </g>
</svg>
