<svg xmlns="http://www.w3.org/2000/svg" width="71" height="43" viewBox="0 0 71 43">
  <g id="开" transform="translate(-3506 -1264)">
    <g id="switch_background_拷贝_2" data-name="switch background 拷贝 2" transform="translate(3047 867)" fill="#3396fb">
      <path d="M 508.42138671875 438.4999084472656 L 480.5783081054688 438.4999084472656 C 477.8663635253906 438.4999084472656 475.2363891601563 437.9710693359375 472.761474609375 436.9280700683594 C 470.37060546875 435.9205017089844 468.22314453125 434.4778442382813 466.3787841796875 432.6401977539063 C 464.5347900390625 430.8029174804688 463.0872802734375 428.6639404296875 462.0764465332031 426.28271484375 C 461.0303955078125 423.8185424804688 460.5 421.2001342773438 460.5 418.5002136230469 C 460.5 415.8003234863281 461.0303955078125 413.1819152832031 462.0764465332031 410.7177124023438 C 463.0873107910156 408.33642578125 464.5348205566406 406.1973876953125 466.3788146972656 404.3600158691406 C 468.2231750488281 402.5222778320313 470.3706359863281 401.0795593261719 472.7615051269531 400.0719299316406 C 475.2364501953125 399.0288696289063 477.8663940429688 398.5 480.5783081054688 398.5 L 508.42138671875 398.5 C 511.1333618164063 398.5 513.7633666992188 399.0288696289063 516.2383422851563 400.0719299316406 C 518.6292114257813 401.0795593261719 520.7767333984375 402.5222778320313 522.62109375 404.3600463867188 C 524.4651489257813 406.1973876953125 525.9126586914063 408.33642578125 526.9235229492188 410.7177124023438 C 527.9696044921875 413.1819152832031 528.5 415.8003234863281 528.5 418.5002136230469 C 528.5 421.2001342773438 527.9696044921875 423.8185424804688 526.9235229492188 426.28271484375 C 525.9126586914063 428.6639404296875 524.4651489257813 430.8028869628906 522.6211547851563 432.6401672363281 C 520.7767333984375 434.4778442382813 518.6292724609375 435.9205017089844 516.2383422851563 436.9280700683594 C 513.7633666992188 437.9710693359375 511.1333923339844 438.4999084472656 508.42138671875 438.4999084472656 Z" stroke="none"/>
      <path d="M 480.5783386230469 400.0000305175781 C 475.6138305664063 400.0000305175781 470.947021484375 401.92578125 467.4375 405.422607421875 C 463.9310913085938 408.9164428710938 462 413.5608520507813 462 418.5001831054688 C 462 423.4396057128906 463.9310913085938 428.0839538574219 467.4375 431.5776062011719 C 470.9468994140625 435.0742797851563 475.61376953125 436.9999389648438 480.5783386230469 436.9999389648438 L 508.4214172363281 436.9999389648438 C 513.3861083984375 436.9999389648438 518.052978515625 435.0742797851563 521.5623779296875 431.5776062011719 C 525.0689086914063 428.0838623046875 527 423.4396057128906 527 418.5001831054688 C 527 413.5608520507813 525.0689086914063 408.9164428710938 521.5623779296875 405.422607421875 C 518.0529174804688 401.92578125 513.385986328125 400.0000305175781 508.4214172363281 400.0000305175781 L 480.5783386230469 400.0000305175781 M 480.5783386230469 397.0000305175781 L 508.4214172363281 397.0000305175781 C 520.3391723632813 397.0000305175781 530 406.6265258789063 530 418.5001831054688 C 530 430.3741149902344 520.3391723632813 439.9999389648438 508.4214172363281 439.9999389648438 L 480.5783386230469 439.9999389648438 C 468.66064453125 439.9999389648438 459 430.3741149902344 459 418.5001831054688 C 459 406.6265258789063 468.66064453125 397.0000305175781 480.5783386230469 397.0000305175781 Z" stroke="none" fill="#3396fb"/>
    </g>
    <ellipse id="handle" cx="19.49" cy="19.42" rx="19.49" ry="19.42" transform="translate(3535.93 1266.07)" fill="#fff"/>
  </g>
</svg>
