<svg xmlns="http://www.w3.org/2000/svg" width="90" height="90" viewBox="0 0 90 90">
  <g id="报销_" data-name="报销 " transform="translate(-51 -448)">
    <rect id="矩形_91" data-name="矩形 91" width="90" height="90" rx="10" transform="translate(51 448)" fill="#ff6565"/>
    <path id="路径_54" data-name="路径 54" d="M547.105,194.944h15.487a3.538,3.538,0,0,0,2.72-1.244c1.6-1.9,3.114-4.231,3.454-6.32.685-4.183-1.108-6.306-6.306-6.306s-3.439,3.41-5.46,3.692c-1.506.209-1.453-1.778-3.819-3.687-1.7-1.365-3.6,2.492-5.849,2.516-2.618.034-6.3-.69-6.3,3.784,0,1.807,1.584,4.251,3.313,6.277a3.635,3.635,0,0,0,2.759,1.287Zm19.32,3.984a4.361,4.361,0,0,0-3.274-1.462H546.624a4.386,4.386,0,0,0-3.172,1.346c-5.193,5.441-9.983,13.209-9.983,18.873,0,4.994,5.018,11.3,11.207,11.3h19.189c6.189,0,11.207-6.252,11.207-11.3,0-5.766-3.852-13.316-8.647-18.757Zm-5.047,6.874-3.323,6.029a.8.8,0,0,0,.695,1.18h.943a.8.8,0,0,1,0,1.593h-2.371a.834.834,0,0,0-.835.831v.394a.8.8,0,0,0,.8.8h2.409a.8.8,0,1,1,0,1.593h-2.409a.8.8,0,0,0-.8.8v2.026a.8.8,0,0,1-.8.8h-1.443a.8.8,0,0,1-.8-.8v-2.026a.8.8,0,0,0-.8-.8h-2.385a.8.8,0,1,1,0-1.593h2.38a.8.8,0,0,0,.8-.8l0-.389a.833.833,0,0,0-.835-.841h-2.351a.8.8,0,1,1,0-1.593h.918a.8.8,0,0,0,.695-1.18l-3.323-6.029a.8.8,0,0,1,.695-1.181h1.584a.79.79,0,0,1,.709.437l2.706,5.4a.8.8,0,0,0,1.424,0l2.706-5.4a.8.8,0,0,1,.709-.437h1.584a.8.8,0,0,1,.7,1.185Zm0,0" transform="translate(-458.073 288.513)" fill="#fff"/>
  </g>
</svg>
