<svg xmlns="http://www.w3.org/2000/svg" xmlns:xlink="http://www.w3.org/1999/xlink" width="30" height="30" viewBox="0 0 30 30">
  <defs>
    <clipPath id="clip-path">
      <path id="路径_4" data-name="路径 4" d="M0-463.92H30v-30H0Z" transform="translate(0 493.92)" fill="#aaa"/>
    </clipPath>
  </defs>
  <g id="搜索" transform="translate(0 493.92)">
    <g id="组_4" data-name="组 4" transform="translate(0 -493.92)" clip-path="url(#clip-path)">
      <g id="组_3" data-name="组 3" transform="translate(0 0.009)">
        <path id="路径_3" data-name="路径 3" d="M-94.023-310.254a9.843,9.843,0,0,1-2.885-6.992,9.843,9.843,0,0,1,2.885-6.992,9.766,9.766,0,0,1,6.965-2.9,9.767,9.767,0,0,1,6.965,2.9,9.843,9.843,0,0,1,2.885,6.992,9.843,9.843,0,0,1-2.885,6.992,9.767,9.767,0,0,1-6.965,2.9,9.768,9.768,0,0,1-6.965-2.9m23.485,7.154-6.18-6.2a13.045,13.045,0,0,0,2.68-7.942,13.046,13.046,0,0,0-13.02-13.071,13.046,13.046,0,0,0-13.02,13.071,13.045,13.045,0,0,0,13.02,13.071,12.933,12.933,0,0,0,8.122-2.855l6.157,6.181a1.576,1.576,0,0,0,1.121.466,1.577,1.577,0,0,0,1.121-.466,1.6,1.6,0,0,0,0-2.25" transform="translate(100.078 330.317)" fill="#aaa"/>
      </g>
    </g>
  </g>
</svg>
