<svg xmlns="http://www.w3.org/2000/svg" width="72" height="44" viewBox="0 0 72 44">
  <g id="关" transform="translate(-1938 -1432)">
    <g id="switch_background" data-name="switch background" transform="translate(1479 1113)" fill="#fff">
      <path d="M 509.117431640625 361.9999694824219 L 480.8822021484375 361.9999694824219 C 478.0632934570313 361.9999694824219 475.3291931152344 361.4451293945313 472.7558898925781 360.3508605957031 C 470.2695007324219 359.2935791015625 468.0361938476563 357.7796630859375 466.1180419921875 355.8511657714844 C 464.1995239257813 353.92236328125 462.6933288574219 351.6764221191406 461.6412963867188 349.1757507324219 C 460.5521850585938 346.5869750976563 459.9999694824219 343.8363647460938 459.9999694824219 341.0003356933594 C 459.9999694824219 338.164306640625 460.5521850585938 335.4136657714844 461.6412963867188 332.8247985839844 C 462.6933288574219 330.3240356445313 464.1995544433594 328.0780334472656 466.1180725097656 326.1491088867188 C 468.0362243652344 324.2205200195313 470.26953125 322.70654296875 472.7558898925781 321.649169921875 C 475.3292236328125 320.5548400878906 478.0633239746094 319.9999694824219 480.8822021484375 319.9999694824219 L 509.117431640625 319.9999694824219 C 511.9363708496094 319.9999694824219 514.6704711914063 320.5548400878906 517.243896484375 321.649169921875 C 519.7302856445313 322.70654296875 521.963623046875 324.2205505371094 523.8818359375 326.1491088867188 C 525.8003540039063 328.0780334472656 527.3065795898438 330.3240661621094 528.358642578125 332.8247985839844 C 529.44775390625 335.4136657714844 530 338.164306640625 530 341.0003356933594 C 530 343.8363647460938 529.44775390625 346.5869750976563 528.358642578125 349.1757507324219 C 527.3065795898438 351.6764221191406 525.8003540039063 353.9223327636719 523.8818359375 355.8511657714844 C 521.963623046875 357.7796630859375 519.7303466796875 359.2935485839844 517.243896484375 360.3508605957031 C 514.6705322265625 361.4451293945313 511.9364013671875 361.9999694824219 509.117431640625 361.9999694824219 Z" stroke="none"/>
      <path d="M 480.8821716308594 320.9999694824219 C 478.1985168457031 320.9999694824219 475.5961303710938 321.5280151367188 473.147216796875 322.5694274902344 C 470.7802124023438 323.5760192871094 468.65380859375 325.0176696777344 466.8270874023438 326.8543090820313 C 464.9996337890625 328.6916809082031 463.5650634765625 330.8308410644531 462.5631103515625 333.2125549316406 C 461.52587890625 335.6780395507813 461 338.2982177734375 461 341.0003356933594 C 461 343.7024536132813 461.52587890625 346.3226013183594 462.5630493164063 348.7879638671875 C 463.5650024414063 351.1695556640625 464.9996337890625 353.3087463378906 466.8270874023438 355.1459655761719 C 468.6537475585938 356.9825134277344 470.7801513671875 358.424072265625 473.1471557617188 359.4306030273438 C 475.5960693359375 360.4719543457031 478.1984558105469 360.9999694824219 480.8821716308594 360.9999694824219 L 509.1174011230469 360.9999694824219 C 511.8011779785156 360.9999694824219 514.4036865234375 360.4719543457031 516.8526000976563 359.4306030273438 C 519.2196044921875 358.424072265625 521.3461303710938 356.9825134277344 523.1728515625 355.1459655761719 C 525.0003051757813 353.3087463378906 526.4349365234375 351.1695556640625 527.4368896484375 348.7879638671875 C 528.47412109375 346.3226013183594 529 343.7024536132813 529 341.0003356933594 C 529 338.2982177734375 528.47412109375 335.6780395507813 527.4368896484375 333.2125549316406 C 526.4349365234375 330.8309020996094 525.0003051757813 328.6916809082031 523.1728515625 326.8543090820313 C 521.3460693359375 325.0176696777344 519.2196044921875 323.5760192871094 516.8525390625 322.5694274902344 C 514.403564453125 321.5280151367188 511.8011169433594 320.9999694824219 509.1174011230469 320.9999694824219 L 480.8821716308594 320.9999694824219 M 480.8821716308594 318.9999694824219 L 509.1174011230469 318.9999694824219 C 521.2030639648438 318.9999694824219 531 328.8503723144531 531 341.0003356933594 C 531 353.1503295898438 521.2030639648438 362.9999694824219 509.1174011230469 362.9999694824219 L 480.8821716308594 362.9999694824219 C 468.7967529296875 362.9999694824219 459 353.1503295898438 459 341.0003356933594 C 459 328.8503723144531 468.7967529296875 318.9999694824219 480.8821716308594 318.9999694824219 Z" stroke="none" fill="#e6e6e6"/>
    </g>
    <ellipse id="handle" cx="19.49" cy="19.92" rx="19.49" ry="19.92" transform="translate(1940.09 1434.07)" fill="#fff" stroke="rgba(0,0,0,0.08)" stroke-linejoin="round" stroke-width="1.5"/>
  </g>
</svg>
