<svg xmlns="http://www.w3.org/2000/svg" width="90" height="90" viewBox="0 0 90 90">
  <g id="差旅报销" transform="translate(-237 -440)">
    <rect id="矩形_91" data-name="矩形 91" width="90" height="90" rx="10" transform="translate(237 440)" fill="#5ca8ff"/>
    <g id="组_243" data-name="组 243" transform="translate(78.333 480.515)">
      <path id="路径_55" data-name="路径 55" d="M530.8,238.27l9.99,18.455,2.829-3.051-2.329-24.556Z" transform="translate(-322.227 -228.609)" fill="#fff"/>
      <path id="路径_56" data-name="路径 56" d="M229.323-18.944l-1.962-1.969s-3.6-1.151-6.046,1.31c-4.25,4.264-9.969,10.17-9.969,10.17l-27.78-4.1-3.431,3.279,20.59,11.973L193.2,9.1l-12.75.818L178,10.735l12.909,7.217,6.863,13.124.978-2.461.818-12.139S220.81-5.335,229.309-13.869C231.445-15.665,229.323-18.944,229.323-18.944Z" fill="#fff"/>
    </g>
  </g>
</svg>
